<svg width="329" height="332" viewBox="0 0 329 332" fill="none" xmlns="http://www.w3.org/2000/svg">
<path opacity="0.05" fill-rule="evenodd" clip-rule="evenodd" d="M66.3207 64.358C70.1101 60.5687 75.6332 59.0887 80.8096 60.4758L136.524 75.4043C141.7 76.7913 145.743 80.8345 147.13 86.0109L162.059 141.725C163.446 146.901 161.966 152.425 158.177 156.214L117.391 196.999C113.602 200.789 108.079 202.269 102.902 200.882L47.188 185.953C42.0116 184.566 37.9684 180.523 36.5814 175.347L21.6529 119.632C20.2659 114.456 21.7458 108.933 25.5352 105.144L66.3207 64.358Z" fill="url(#paint0_linear_2_6)"/>
<path opacity="0.05" fill-rule="evenodd" clip-rule="evenodd" d="M180.95 173.405C184.739 169.616 190.263 168.136 195.439 169.523L251.153 184.452C256.329 185.839 260.373 189.882 261.76 195.058L276.688 250.772C278.075 255.949 276.595 261.472 272.806 265.261L232.02 306.047C228.231 309.836 222.708 311.316 217.532 309.929L161.817 295.001C156.641 293.614 152.598 289.57 151.211 284.394L136.282 228.68C134.895 223.503 136.375 217.98 140.165 214.191L180.95 173.405Z" fill="url(#paint1_linear_2_6)"/>
<path opacity="0.05" fill-rule="evenodd" clip-rule="evenodd" d="M211.21 25.5352C214.999 21.7458 220.522 20.2659 225.699 21.6529L281.413 36.5814C286.589 37.9684 290.632 42.0117 292.019 47.188L306.948 102.902C308.335 108.079 306.855 113.602 303.065 117.391L262.28 158.177C258.491 161.966 252.967 163.446 247.791 162.059L192.077 147.13C186.901 145.743 182.857 141.7 181.47 136.524L166.542 80.8096C165.155 75.6332 166.635 70.1101 170.424 66.3207L211.21 25.5352Z" fill="url(#paint2_linear_2_6)"/>
<defs>
<linearGradient id="paint0_linear_2_6" x1="144.941" y1="39.016" x2="0.437989" y2="77.7354" gradientUnits="userSpaceOnUse">
<stop stop-color="white"/>
<stop offset="1" stop-color="white" stop-opacity="0.01"/>
</linearGradient>
<linearGradient id="paint1_linear_2_6" x1="259.57" y1="148.063" x2="115.067" y2="186.783" gradientUnits="userSpaceOnUse">
<stop stop-color="white"/>
<stop offset="1" stop-color="white" stop-opacity="0.01"/>
</linearGradient>
<linearGradient id="paint2_linear_2_6" x1="289.83" y1="0.193141" x2="145.327" y2="38.9125" gradientUnits="userSpaceOnUse">
<stop stop-color="white"/>
<stop offset="1" stop-color="white" stop-opacity="0.01"/>
</linearGradient>
</defs>
</svg>
