<svg width="1440" height="1024" viewBox="0 0 1440 1024" fill="none" xmlns="http://www.w3.org/2000/svg">
<rect width="1440" height="1024" fill="#426877"/>
<path opacity="0.05" fill-rule="evenodd" clip-rule="evenodd" d="M1110.32 94.358C1114.11 90.5687 1119.63 89.0888 1124.81 90.4758L1180.52 105.404C1185.7 106.791 1189.74 110.835 1191.13 116.011L1206.06 171.725C1207.45 176.901 1205.97 182.425 1202.18 186.214L1161.39 226.999C1157.6 230.789 1152.08 232.269 1146.9 230.882L1091.19 215.953C1086.01 214.566 1081.97 210.523 1080.58 205.347L1065.65 149.632C1064.27 144.456 1065.75 138.933 1069.54 135.144L1110.32 94.358Z" fill="url(#paint0_linear_2_20)"/>
<path opacity="0.05" fill-rule="evenodd" clip-rule="evenodd" d="M153.56 826.023C157.349 822.234 162.872 820.754 168.049 822.141L191.002 828.291C196.178 829.678 200.221 833.721 201.608 838.898L207.759 861.851C209.146 867.027 207.666 872.55 203.876 876.34L187.073 893.143C183.284 896.932 177.761 898.412 172.585 897.025L149.631 890.875C144.455 889.488 140.412 885.444 139.025 880.268L132.875 857.315C131.488 852.139 132.967 846.615 136.757 842.826L153.56 826.023Z" fill="url(#paint1_linear_2_20)"/>
<path opacity="0.05" fill-rule="evenodd" clip-rule="evenodd" d="M1224.95 203.405C1228.74 199.616 1234.26 198.136 1239.44 199.523L1295.15 214.452C1300.33 215.839 1304.37 219.882 1305.76 225.058L1320.69 280.772C1322.08 285.949 1320.6 291.472 1316.81 295.261L1276.02 336.047C1272.23 339.836 1266.71 341.316 1261.53 339.929L1205.82 325.001C1200.64 323.614 1196.6 319.57 1195.21 314.394L1180.28 258.68C1178.9 253.503 1180.38 247.98 1184.16 244.191L1224.95 203.405Z" fill="url(#paint2_linear_2_20)"/>
<path opacity="0.05" fill-rule="evenodd" clip-rule="evenodd" d="M216.351 885.757C220.14 881.967 225.664 880.488 230.84 881.875L253.793 888.025C258.969 889.412 263.013 893.455 264.4 898.631L270.55 921.584C271.937 926.761 270.457 932.284 266.668 936.073L249.865 952.876C246.075 956.666 240.552 958.146 235.376 956.758L212.423 950.608C207.246 949.221 203.203 945.178 201.816 940.002L195.666 917.049C194.279 911.872 195.759 906.349 199.548 902.56L216.351 885.757Z" fill="url(#paint3_linear_2_20)"/>
<path opacity="0.05" fill-rule="evenodd" clip-rule="evenodd" d="M1255.21 55.5352C1259 51.7458 1264.52 50.2659 1269.7 51.6529L1325.41 66.5814C1330.59 67.9684 1334.63 72.0117 1336.02 77.188L1350.95 132.902C1352.33 138.079 1350.85 143.602 1347.07 147.391L1306.28 188.177C1302.49 191.966 1296.97 193.446 1291.79 192.059L1236.08 177.13C1230.9 175.743 1226.86 171.7 1225.47 166.524L1210.54 110.81C1209.15 105.633 1210.63 100.11 1214.42 96.3207L1255.21 55.5352Z" fill="url(#paint4_linear_2_20)"/>
<path opacity="0.05" fill-rule="evenodd" clip-rule="evenodd" d="M232.927 804.757C236.716 800.967 242.239 799.488 247.415 800.875L270.369 807.025C275.545 808.412 279.588 812.455 280.975 817.631L287.125 840.584C288.512 845.761 287.033 851.284 283.243 855.073L266.44 871.876C262.651 875.666 257.128 877.146 251.951 875.758L228.998 869.608C223.822 868.221 219.779 864.178 218.392 859.002L212.241 836.049C210.854 830.872 212.334 825.349 216.124 821.56L232.927 804.757Z" fill="url(#paint5_linear_2_20)"/>
<defs>
<linearGradient id="paint0_linear_2_20" x1="1188.94" y1="69.016" x2="1044.44" y2="107.735" gradientUnits="userSpaceOnUse">
<stop stop-color="white"/>
<stop offset="1" stop-color="white" stop-opacity="0.01"/>
</linearGradient>
<linearGradient id="paint1_linear_2_20" x1="199.395" y1="809.372" x2="120.24" y2="830.582" gradientUnits="userSpaceOnUse">
<stop stop-color="white"/>
<stop offset="1" stop-color="white" stop-opacity="0.01"/>
</linearGradient>
<linearGradient id="paint2_linear_2_20" x1="1303.57" y1="178.063" x2="1159.07" y2="216.783" gradientUnits="userSpaceOnUse">
<stop stop-color="white"/>
<stop offset="1" stop-color="white" stop-opacity="0.01"/>
</linearGradient>
<linearGradient id="paint3_linear_2_20" x1="262.187" y1="869.106" x2="183.031" y2="890.315" gradientUnits="userSpaceOnUse">
<stop stop-color="white"/>
<stop offset="1" stop-color="white" stop-opacity="0.01"/>
</linearGradient>
<linearGradient id="paint4_linear_2_20" x1="1333.83" y1="30.1931" x2="1189.33" y2="68.9125" gradientUnits="userSpaceOnUse">
<stop stop-color="white"/>
<stop offset="1" stop-color="white" stop-opacity="0.01"/>
</linearGradient>
<linearGradient id="paint5_linear_2_20" x1="278.762" y1="788.106" x2="199.607" y2="809.315" gradientUnits="userSpaceOnUse">
<stop stop-color="white"/>
<stop offset="1" stop-color="white" stop-opacity="0.01"/>
</linearGradient>
</defs>
</svg>
