<svg width="140" height="18" viewBox="0 0 140 18" fill="none" xmlns="http://www.w3.org/2000/svg">
<g clip-path="url(#clip0_430_39375)">
<path d="M46.2983 14.2236V3.09633H53.7183V4.81035H48.2023V7.6993H53.6063V9.41331H48.2023V14.2098H46.2983V14.2236ZM64.2883 14.2236L61.8803 10.0768H59.9903V14.2236H58.1003V3.09633H62.8603C65.0023 3.09633 66.4023 4.53389 66.4023 6.57966C66.4023 8.57013 65.1423 9.63448 63.8403 9.84182L66.4863 14.2098H64.2883V14.2236ZM64.4423 6.59348C64.4423 5.52913 63.6583 4.82417 62.5943 4.82417H59.9903V8.36279H62.5943C63.6583 8.34896 64.4423 7.65783 64.4423 6.59348ZM70.9663 14.2236V3.09633H72.8703V14.2236H70.9663ZM85.4283 14.2236L84.6303 12.0949H79.6603L78.8623 14.2236H76.7203L80.9763 3.09633H83.3423L87.5983 14.2236H85.4283ZM82.1523 5.07298L80.2063 10.3671H84.0983L82.1523 5.07298ZM97.6363 14.2236L95.2283 10.0768H93.3383V14.2236H91.4343V3.09633H96.1943C98.3363 3.09633 99.7363 4.53389 99.7363 6.57966C99.7363 8.57013 98.4763 9.63448 97.1743 9.84182L99.8203 14.2098H97.6363V14.2236ZM97.8043 6.59348C97.8043 5.52913 97.0203 4.82417 95.9563 4.82417H93.3523V8.36279H95.9563C97.0203 8.34896 97.8043 7.65783 97.8043 6.59348ZM106.75 14.2236V4.82417H103.46V3.09633H111.916V4.81035H108.64V14.2098H106.75V14.2236ZM116.214 9.84182V3.09633H118.132V9.75888C118.132 11.5282 119.084 12.6755 120.904 12.6755C122.71 12.6755 123.662 11.5282 123.662 9.75888V3.09633H125.58V9.81417C125.58 12.5787 124.04 14.4171 120.904 14.4171C117.754 14.4171 116.214 12.5787 116.214 9.84182ZM137.802 14.2236L134.764 9.86946L131.726 14.2236H129.458L133.518 8.51484L129.71 3.09633H131.978L134.764 7.18786L137.536 3.09633H139.818L136.024 8.50101L140.07 14.2236H137.802ZM0.0703125 14.3204V3.42807H7.57431V5.47384H2.32431V7.78223H7.46231V9.81417H2.32431V14.3204H0.0703125ZM22.3723 14.3204V5.47384H19.2643V3.42807H27.7203V5.47384H24.6403V14.3204H22.3723ZM13.2023 0.0691528H13.7063V17.6102H13.2023V0.0691528Z" fill="white"/>
</g>
<defs>
<clipPath id="clip0_430_39375">
<rect width="140" height="17.5549" fill="white"/>
</clipPath>
</defs>
</svg>
