<svg width="32" height="32" viewBox="0 0 32 32" fill="none" xmlns="http://www.w3.org/2000/svg">
<path d="M23.5321 8.46789C22.9081 7.84404 21.8965 7.84404 21.2724 8.46789L16.01 13.7303L10.7476 8.46789C10.1205 7.86227 9.12381 7.87093 8.50738 8.48736C7.89095 9.10379 7.88229 10.1005 8.48791 10.7276L13.7503 15.99L8.48791 21.2524C8.07248 21.6537 7.90587 22.2478 8.05212 22.8066C8.19837 23.3653 8.63471 23.8016 9.19345 23.9479C9.75218 24.0941 10.3463 23.9275 10.7476 23.5121L16.01 18.2497L21.2724 23.5121C21.8995 24.1177 22.8962 24.1091 23.5126 23.4926C24.1291 22.8762 24.1377 21.8795 23.5321 21.2524L18.2697 15.99L23.5321 10.7276C24.156 10.1035 24.156 9.09194 23.5321 8.46789Z" fill="#BDBDBD"/>
</svg>
