<svg width="234" height="30" viewBox="0 0 234 30" fill="none" xmlns="http://www.w3.org/2000/svg">
<path d="M77.3837 23.7738V5.17531H89.7857V8.04017H80.5661V12.8688H89.5985V15.7337H80.5661V23.7507H77.3837V23.7738ZM107.453 23.7738L103.428 16.8427H100.269V23.7738H97.1099V5.17531H105.066C108.646 5.17531 110.986 7.57809 110.986 10.9974C110.986 14.3244 108.88 16.1034 106.704 16.4499L111.126 23.7507H107.453V23.7738ZM107.71 11.0205C107.71 9.24156 106.4 8.06327 104.621 8.06327H100.269V13.9778H104.621C106.4 13.9547 107.71 12.7995 107.71 11.0205ZM118.614 23.7738V5.17531H121.797V23.7738H118.614ZM142.787 23.7738L141.453 20.2158H133.146L131.812 23.7738H128.232L135.345 5.17531H139.3L146.414 23.7738H142.787ZM137.311 8.47914L134.058 17.3279H140.564L137.311 8.47914ZM163.191 23.7738L159.167 16.8427H156.008V23.7738H152.825V5.17531H160.781C164.361 5.17531 166.701 7.57809 166.701 10.9974C166.701 14.3244 164.595 16.1034 162.419 16.4499L166.842 23.7507H163.191V23.7738ZM163.472 11.0205C163.472 9.24156 162.162 8.06327 160.383 8.06327H156.031V13.9778H160.383C162.162 13.9547 163.472 12.7995 163.472 11.0205ZM178.425 23.7738V8.06327H172.926V5.17531H187.059V8.04017H181.584V23.7507H178.425V23.7738ZM194.243 16.4499V5.17531H197.449V16.3113C197.449 19.2686 199.04 21.1862 202.082 21.1862C205.101 21.1862 206.692 19.2686 206.692 16.3113V5.17531H209.898V16.4037C209.898 21.0244 207.324 24.0972 202.082 24.0972C196.817 24.0972 194.243 21.0244 194.243 16.4499ZM230.326 23.7738L225.248 16.4961L220.17 23.7738H216.38L223.166 14.232L216.801 5.17531H220.592L225.248 12.014L229.881 5.17531H233.696L227.354 14.2089L234.117 23.7738H230.326ZM0.116882 23.9355V5.7298H12.6593V9.14915H3.88428V13.0075H12.4721V16.4037H3.88428V23.9355H0.116882ZM37.3931 23.9355V9.14915H32.1983V5.7298H46.3319V9.14915H41.1839V23.9355H37.3931ZM22.0661 0.115601H22.9085V29.4342H22.0661V0.115601Z" fill="#426877"/>
</svg>
